<?xml version="1.0" encoding="utf-8"?>
<!-- Generator: Adobe Illustrator 15.0.0, SVG Export Plug-In . SVG Version: 6.00 Build 0)  -->
<!DOCTYPE svg PUBLIC "-//W3C//DTD SVG 1.0//EN" "http://www.w3.org/TR/2001/REC-SVG-20010904/DTD/svg10.dtd">
<svg version="1.0" id="Layer_1" xmlns="http://www.w3.org/2000/svg" xmlns:xlink="http://www.w3.org/1999/xlink" x="0px" y="0px"
	 width="1000px" height="1000px" viewBox="0 0 1000 1000" enable-background="new 0 0 1000 1000" xml:space="preserve">
<g>
	<g>
		<path fill="#FFFFFF" d="M128.838,82.648c-20.69,4.859-16.83,9.487,36.458,35.014c-55.431-20.532-61.433-20.167-49.987-2.352
			c-17.814-11.446-18.18-5.444,2.352,49.987c-25.526-53.288-30.155-57.148-35.014-36.458c-4.859-20.69-9.487-16.83-35.014,36.458
			c20.532-55.431,20.167-61.433,2.352-49.987C61.433,97.496,55.431,97.13,0,117.662c53.288-25.526,57.148-30.155,36.458-35.014
			C57.148,77.79,53.288,73.161,0,47.635c55.431,20.532,61.433,20.167,49.987,2.352C67.801,61.433,68.167,55.431,47.635,0
			C73.161,53.288,77.79,57.148,82.648,36.458c4.859,20.69,9.487,16.83,35.014-36.458C97.13,55.431,97.496,61.433,115.31,49.987
			c-11.446,17.814-5.444,18.18,49.987-2.352C112.009,73.161,108.148,77.79,128.838,82.648z"/>
	</g>
	<g>
		<path fill="none" stroke="#000000" stroke-miterlimit="10" d="M128.838,82.648c-20.69,4.859-16.83,9.487,36.458,35.014
			c-55.431-20.532-61.433-20.167-49.987-2.352c-17.814-11.446-18.18-5.444,2.352,49.987c-25.526-53.288-30.155-57.148-35.014-36.458
			c-4.859-20.69-9.487-16.83-35.014,36.458c20.532-55.431,20.167-61.433,2.352-49.987C61.433,97.496,55.431,97.13,0,117.662
			c53.288-25.526,57.148-30.155,36.458-35.014C57.148,77.79,53.288,73.161,0,47.635c55.431,20.532,61.433,20.167,49.987,2.352
			C67.801,61.433,68.167,55.431,47.635,0C73.161,53.288,77.79,57.148,82.648,36.458c4.859,20.69,9.487,16.83,35.014-36.458
			C97.13,55.431,97.496,61.433,115.31,49.987c-11.446,17.814-5.444,18.18,49.987-2.352C112.009,73.161,108.148,77.79,128.838,82.648
			z"/>
	</g>
</g>
</svg>
