<?xml version="1.0" encoding="utf-8"?>
<!-- Generator: Adobe Illustrator 15.0.0, SVG Export Plug-In . SVG Version: 6.00 Build 0)  -->
<!DOCTYPE svg PUBLIC "-//W3C//DTD SVG 1.0//EN" "http://www.w3.org/TR/2001/REC-SVG-20010904/DTD/svg10.dtd">
<svg version="1.0" id="Layer_1" xmlns="http://www.w3.org/2000/svg" xmlns:xlink="http://www.w3.org/1999/xlink" x="0px" y="0px"
	 width="1000px" height="1000px" viewBox="0 0 1000 1000" enable-background="new 0 0 1000 1000" xml:space="preserve">
<g>
	<path fill="#FFFFFF" d="M86.809,55.809c19,9.527,26.569,18.603,24.469,23.499s-13.87,5.613-33.548-1.579
		c7.192,19.678,6.475,31.448,1.579,33.548s-13.972-5.469-23.499-24.469c-9.527,19-18.603,26.569-23.499,24.469
		s-5.613-13.87,1.579-33.548C14.21,84.921,2.44,84.204,0.34,79.308s5.469-13.972,24.469-23.499
		C5.809,46.282-1.761,37.206,0.34,32.31s13.87-5.613,33.548,1.579C26.696,14.21,27.413,2.44,32.31,0.34s13.972,5.469,23.499,24.469
		c9.527-19,18.603-26.569,23.499-24.469s5.613,13.87-1.579,33.548c19.678-7.192,31.448-6.475,33.548-1.579
		S105.809,46.282,86.809,55.809z"/>
	<path fill="none" stroke="#000000" stroke-miterlimit="10" d="M86.809,55.809c19,9.527,26.569,18.603,24.469,23.499
		s-13.87,5.613-33.548-1.579c7.192,19.678,6.475,31.448,1.579,33.548s-13.972-5.469-23.499-24.469
		c-9.527,19-18.603,26.569-23.499,24.469s-5.613-13.87,1.579-33.548C14.21,84.921,2.44,84.204,0.34,79.308
		s5.469-13.972,24.469-23.499C5.809,46.282-1.761,37.206,0.34,32.31s13.87-5.613,33.548,1.579C26.696,14.21,27.413,2.44,32.31,0.34
		s13.972,5.469,23.499,24.469c9.527-19,18.603-26.569,23.499-24.469s5.613,13.87-1.579,33.548
		c19.678-7.192,31.448-6.475,33.548-1.579S105.809,46.282,86.809,55.809z"/>
</g>
</svg>
