<?xml version="1.0" encoding="utf-8"?>
<!-- Generator: Adobe Illustrator 15.0.0, SVG Export Plug-In . SVG Version: 6.00 Build 0)  -->
<!DOCTYPE svg PUBLIC "-//W3C//DTD SVG 1.0//EN" "http://www.w3.org/TR/2001/REC-SVG-20010904/DTD/svg10.dtd">
<svg version="1.0"
	 id="svg14094" xmlns:dc="http://purl.org/dc/elements/1.1/" xmlns:cc="http://creativecommons.org/ns#" xmlns:rdf="http://www.w3.org/1999/02/22-rdf-syntax-ns#" xmlns:svg="http://www.w3.org/2000/svg" xmlns:inkscape="http://www.inkscape.org/namespaces/inkscape" xmlns:sodipodi="http://sodipodi.sourceforge.net/DTD/sodipodi-0.dtd" inkscape:version="0.48.2 r9819" sodipodi:docname="my_tile.svg"
	 xmlns="http://www.w3.org/2000/svg" xmlns:xlink="http://www.w3.org/1999/xlink" x="0px" y="0px" width="744.094px"
	 height="1052.363px" viewBox="0 0 744.094 1052.363" enable-background="new 0 0 744.094 1052.363" xml:space="preserve">
<sodipodi:namedview  id="base" inkscape:cy="520" inkscape:cx="375" inkscape:zoom="0.35" borderopacity="1.0" bordercolor="#666666" pagecolor="#ffffff" showgrid="false" inkscape:window-maximized="0" inkscape:window-y="57" inkscape:window-x="112" inkscape:window-height="456" inkscape:window-width="746" inkscape:current-layer="layer1" inkscape:document-units="px" inkscape:pageshadow="2" inkscape:pageopacity="0.0">
	</sodipodi:namedview>
<g id="layer1" inkscape:label="Layer 1" inkscape:groupmode="layer">
	
		<image overflow="visible" enable-background="new    " width="881" height="1173" id="image14110" xlink:href="F1495C63.png"  transform="matrix(1 0 0 1 -65.5 -54.1367)">
	</image>
	<path id="path14113" inkscape:connector-curvature="0" d="M12.879,1117.476c-4.576-2.066-7.744-6.844-12.313-18.568
		c-4.941-12.68-8.18-17.553-13.45-20.242c-5.732-2.924-14.435-2.068-26.328,2.59c-10.514,4.117-14.41,4.439-19.098,1.582
		c-5.251-3.201-6.657-7.658-6.616-20.975c0.041-13.246,2.363-26.457,8.379-47.654c9.556-33.672,30.063-88.166,49.343-131.123
		l5.51-12.275l-7.958-18.225c-34.771-79.625-55.813-145.305-55.842-174.291c-0.008-8.439,2.336-15.701,6.087-18.857
		c4.161-3.502,9.828-3.395,19.689,0.373c20.84,7.963,29.136,6.158,36.148-7.861c5.479-10.953,5.58-11.998,1.991-20.621
		c-7.406-17.791-16.433-20.803-37.386-12.479c-13.366,5.309-20.406,4.072-24.143-4.238c-2.932-6.521-2.461-24.559,1.063-40.748
		c7.6-34.914,26.541-88.464,51.239-144.862c4.73-10.802,8.609-20.118,8.62-20.703c0.011-0.586-3.603-9.361-8.031-19.5
		c-36.25-83.002-56.86-149.027-55.001-176.193c0.639-9.34,3.014-14.537,7.788-17.044c4.441-2.333,8.079-1.85,20.166,2.677
		c10.859,4.067,19.59,4.802,24.835,2.089c3.979-2.058,8.229-8.125,11.462-16.365l2.66-6.779l-3.264-7.91
		c-4.299-10.418-9.583-15.936-16.213-16.93c-5.431-0.814-10.718,0.288-21.932,4.572c-10.672,4.077-15.944,3.986-20.279-0.349
		c-4.054-4.054-5.491-8.947-5.493-18.703c-0.005-23.02,13.202-69.659,35.961-127c7.483-18.853,27.368-65,28.009-65
		c0.344,0,1.449,2.362,2.457,5.25s3.942,9.563,6.522,14.834C21.984-4.38,40.421,11.514,63.5,14.259
		c5.209,0.619,5.765,0.461,10.5-2.983c21.245-15.453,40.468-24.334,49.838-23.026c2.289,0.319,4.612,0.625,5.162,0.68
		c0.55,0.055,5.725-1.583,11.5-3.639c9.602-3.418,11.398-3.738,21-3.729c9.896,0.009,11.096,0.243,20.854,4.067
		c9.006,3.529,10.755,3.917,13.434,2.983c8.283-2.887,29.068,6.058,50.085,21.554l6.873,5.067l7.973-1.162
		c23.808-3.47,44.513-23.98,58.26-57.711l4.384-10.757l3.143,6.88c14.22,31.127,35.436,84.903,45.487,115.298l2.784,8.418
		l6.707-19.418c13.439-38.918,43.406-112.132,45.078-110.141c0.336,0.397,1.428,2.973,2.428,5.723
		c9.57,26.304,26.238,47.854,43.598,56.367c5.289,2.593,11.133,4.579,15.734,5.345c8.34,1.389,6.438,2.118,22.018-8.438
		c18.668-12.648,35.404-19.262,42.914-16.958c2.902,0.891,4.658,0.558,12.561-2.386c17.813-6.634,26.914-6.782,43.494-0.708
		c5.332,1.953,10.594,3.466,11.693,3.363c8.02-0.75,13.584-0.101,20,2.334c8.043,3.053,21.84,11.055,32,18.558l7,5.17l6.293-0.606
		c24.967-2.405,46.873-23.942,61.289-60.254c1.699-4.283,3.223-7.92,3.381-8.082c0.391-0.396,12.029,26.095,20.729,47.18
		c39.547,95.865,52.725,156.366,35.945,165.042c-4.654,2.408-9.363,1.907-19.426-2.066c-7.525-2.972-10.598-3.658-16.781-3.75
		c-6.904-0.103-7.908,0.144-11.389,2.794c-2.723,2.072-4.926,5.271-7.68,11.147c-2.123,4.532-3.861,9.183-3.861,10.333
		c0,3.672,5.012,14.767,8.523,18.871c1.867,2.182,4.775,4.539,6.463,5.237c4.902,2.031,15.291,0.75,24.514-3.021
		c10.869-4.446,17.188-4.599,21.447-0.521c1.697,1.624,3.57,4.757,4.164,6.962c1.521,5.649,1.229,20.475-0.611,31.086
		c-5.65,32.553-25.787,90.661-53.059,153.104l-8.629,19.757l4.23,9.569c9.092,20.569,23.275,55.098,30.346,73.872
		c19.299,51.237,28.619,86.395,28.729,108.366c0.102,20.643-7.209,26.037-25.684,18.957c-16.637-6.375-23.035-6.377-29.943-0.012
		c-5.018,4.627-9.9,14.65-9.953,20.438c-0.059,6.314,6.523,18.801,11.719,22.23c6.113,4.039,14.223,3.693,26.594-1.135
		c19.854-7.744,27.277-3.039,27.34,17.326c0.092,30.18-18.043,87.881-53.326,169.693l-9.99,23.166l8.43,19.334
		c40.424,92.713,60.219,160.611,53.785,184.502c-1.988,7.385-8.764,11.611-15.832,9.873c-1.516-0.371-6.898-2.221-11.963-4.109
		c-14.49-5.402-22.799-4.494-29.127,3.182c-1.75,2.125-5.223,9.105-7.715,15.514c-6.762,17.379-12.055,21.721-23.092,18.941
		c-17.811-4.484-49.994-31.012-95.41-78.641c-12.754-13.375-22.793-25.006-34.225-39.656l-7.592-9.73l-6.766,8.73
		c-25.164,32.467-65.199,73.51-96.379,98.803c-18.688,15.158-33.328,22.521-41.67,20.957c-6.928-1.299-9.957-5.457-17.428-23.918
		c-3.443-8.51-7.412-13.799-12.225-16.287c-4.604-2.379-14.441-1.311-24.166,2.625c-12.254,4.961-17.016,5.053-28.5,0.555
		c-11.775-4.613-20.836-5.627-26.456-2.961c-5.105,2.424-8.522,7.461-13.558,19.988c-5.135,12.775-7.46,16.412-12.006,18.775
		c-13.352,6.939-39.356-10.654-89.08-60.268c-25.57-25.512-40.239-41.758-52.666-58.328c-5.187-6.916-6.835-8.512-7.742-7.5
		c-0.633,0.707-4.26,5.336-8.06,10.287c-21.197,27.619-66.848,74.25-94.18,96.203c-8.944,7.186-22.172,15.904-27.76,18.299
		C23.729,1118.55,16.719,1119.21,12.879,1117.476L12.879,1117.476z M39.679,1076.22c6.463-3.455,24.267-20.904,31.994-31.357
		c25.279-34.199,51.492-81.797,58.499-106.223c2.824-9.844,2.876-18.66,0.127-21.408c-1.373-1.373-2.236-1.174-8.421,1.941
		c-3.791,1.908-10.713,5.773-15.384,8.59c-10.673,6.436-22.216,10.943-30.139,11.771c-5.45,0.57-6.801,1.197-12.24,5.672
		c-3.363,2.768-11.36,10.063-17.773,16.209c-11.686,11.203-19.597,16.451-24.787,16.443c-3.664-0.01-8.583-3.318-11.442-7.707
		c-3.36-5.158-5.592-13.479-6.983-26.041L1.96,933.578l-9.154,19.893c-19.073,41.449-28.121,68.49-25.353,75.77
		c1.124,2.955,1.76,3.088,7.128,1.48c7.789-2.334,11.111,0.777,23.019,21.553c8.244,14.383,14.811,22.314,21.158,25.553
		C24.481,1080.744,32.343,1080.142,39.679,1076.22L39.679,1076.22z M303.162,1077.783c6.22-3.01,12.228-10.268,20.89-25.234
		c9.263-16.002,11.625-19.209,15.711-21.322c2.729-1.412,3.828-1.463,8.064-0.377c6.29,1.613,6.913,0.781,6.354-8.486
		c-0.699-11.594-11.113-39.521-27.752-74.42l-6.397-13.42l-1.627,11.42c-2.607,18.295-5.408,25.32-11.818,29.639
		c-7.205,4.855-14.853,1.52-29.881-13.039c-16.603-16.082-24.939-22.68-28.65-22.68c-8.107,0-21.246-5.08-35.914-13.883
		c-4.479-2.689-10.564-6.102-13.523-7.586c-4.962-2.488-5.507-2.572-7-1.076c-2.755,2.758-2.147,15.35,1.232,25.545
		c7.839,23.645,35.199,72.244,57.141,101.5C271.891,1073.56,289.292,1084.498,303.162,1077.783z M462.495,1078.365
		c13.289-4.689,32.184-24.639,51.391-54.26c24.273-37.434,43.508-76.775,46.109-94.314c0.688-4.635-0.744-12.346-2.494-13.428
		c-1.15-0.711-9.408,3.32-22.078,10.777c-13.383,7.875-26.094,12.682-33.613,12.711c-3.824,0.014-11.68,6.109-30.115,23.367
		c-8.234,7.709-13.762,12.076-16.707,13.201c-8.326,3.18-14.523-0.021-19-9.813c-2.607-5.707-5.436-19.98-5.572-28.125l-0.086-5.119
		l-6.369,13c-14.906,30.42-27.896,64.529-29.07,76.326c-0.77,7.74,0.928,10.184,5.84,8.408c1.877-0.68,4.404-1.234,5.615-1.234
		c3.98,0,10.391,7.313,17.654,20.143c10.645,18.801,15.07,24.174,23.002,27.922C451.852,1080.222,456.833,1080.361,462.495,1078.365
		L462.495,1078.365z M732.237,1076.839c6.623-3.797,10.996-9.35,20.861-26.488c10.861-18.867,14.959-22.281,23.273-19.385
		c2.465,0.859,3.527,0.809,4.775-0.227c3.6-2.986-0.059-19.297-9.844-43.877c-7.535-18.928-22.939-52.035-23.93-51.424
		c-0.48,0.299-0.873,3.008-0.873,6.023c0,12.961-5.545,29.516-11.324,33.805c-3.57,2.648-9.787,2.695-15.1,0.111
		c-2.158-1.051-9.809-7.49-17-14.311c-16.889-16.02-23.756-21.205-28.07-21.205c-7.355,0-22.566-6.162-36.965-14.975
		c-3.535-2.164-8.791-5.133-11.68-6.596l-5.254-2.664l-1.916,2.367c-1.643,2.027-1.846,3.506-1.418,10.365
		c0.801,12.875,7.777,30.408,22.945,57.676c27.783,49.943,52.057,81.322,69.76,90.178
		C719.872,1080.914,724.881,1081.058,732.237,1076.839L732.237,1076.839z M393.215,948.863c5.365-14.102,18.992-47.016,26.328-63.6
		c3.275-7.404,5.957-14.061,5.957-14.791s-1.535-4.654-3.408-8.719c-11.771-25.521-29.775-70.766-41.145-103.391
		c-3.451-9.9-6.518-17.326-6.816-16.5c-0.299,0.824-2.65,7.799-5.225,15.5c-8.895,26.598-24.721,66.639-39.87,100.875l-5.521,12.473
		l3.081,6.826c15.034,33.305,35.224,84.447,44.903,113.744l3.278,9.92l7.221-20.92C385.971,968.775,391.018,954.636,393.215,948.863
		z M74.003,936.251c21.541-15.57,40.474-24.309,49.835-23.002c2.289,0.32,4.612,0.639,5.162,0.709s5.5-1.576,11-3.66
		c9.358-3.543,10.706-3.785,21-3.791c10.471-0.006,11.505,0.188,21.5,4.047c7.274,2.809,11.018,3.785,12.184,3.182
		c4.386-2.273,14.638,0.01,26.314,5.859c7.52,3.768,21.641,12.662,27.762,17.488c3.44,2.711,4.207,2.908,9,2.305
		c8.116-1.021,15.723-3.406,21.676-6.793c7.391-4.205,18.771-15.225,24.94-24.148c5.971-8.639,14.122-24.674,16.677-32.814l1.8-5.73
		l-3.684-9.305c-7.097-17.932-19.015-35.787-29.973-44.908c-6.936-5.771-15.473-10.273-23.4-12.338
		c-10.199-2.656-12.247-2.213-22.547,4.881c-22.145,15.254-38.378,21.951-47.257,19.5c-2.595-0.717-4.948-0.223-12.591,2.641
		c-17.339,6.494-26.754,6.516-44.591,0.102c-7.881-2.836-10.567-3.398-12.948-2.715c-8.811,2.525-23.436-3.438-45.819-18.684
		l-10.958-7.465l-6.18,0.578c-16.121,1.506-30.476,10.676-43.253,27.633C9.694,843.037-1.168,866.324-0.19,872.363
		c0.741,4.574,7.685,20.045,13.024,29.018c12.111,20.352,27.71,33.244,44.667,36.916C67.129,940.38,68.529,940.207,74.003,936.251
		L74.003,936.251z M506,933.386c18.896-13.559,37.041-21.514,45.828-20.092c2.295,0.371,4.621,0.689,5.172,0.709
		c0.549,0.02,5.5-1.668,11-3.748c9.268-3.506,10.768-3.781,20.5-3.771c9.689,0.01,11.271,0.301,20.5,3.773
		c5.5,2.07,10.9,3.684,12,3.586c8.4-0.754,14.49-0.023,20.691,2.482c8.113,3.277,22.764,11.83,32.039,18.709l6.83,5.063l7.719-1.117
		c24.26-3.508,46.137-25.797,59.715-60.836l2.797-7.219l-2.277-6.281c-1.252-3.455-4.426-10.557-7.053-15.781
		c-14.316-28.479-33.529-44.633-55.461-46.629c-5.859-0.533-6.141-0.443-12,3.842c-21.141,15.457-40.584,23.91-50.076,21.77
		c-2.732-0.617-5.686,0.029-14.672,3.207c-9.861,3.486-12.371,3.984-20.295,4.023c-7.975,0.039-10.275-0.396-19.5-3.693
		c-5.752-2.057-11.582-3.707-12.957-3.67c-10.674,0.295-13.332-0.004-19.307-2.172c-8.045-2.92-20.98-10.219-31.771-17.928
		c-8.756-6.254-10.473-6.65-20.123-4.654c-9.213,1.908-18.896,7.25-27.203,15.008c-11.727,10.949-23.635,30.07-29.686,47.658
		l-1.846,5.363l2.471,6.564c4.223,11.219,13.393,27.773,20.047,36.188c12.629,15.971,28.898,25.285,45.418,25.996
		C496.094,939.804,500.258,937.507,506,933.386L506,933.386z M217.5,812.351c9.701-5.664,20.568-9.725,29.5-11.02
		c5.854-0.85,11.349-4.984,30.085-22.633c6.479-6.104,13.609-11.93,15.847-12.945c7.246-3.291,12.925-2.148,17.794,3.578
		c3.714,4.367,6.356,14.266,8.541,31.994l0.734,5.965l5.86-12.465c9.653-20.533,20.162-45.734,24.171-57.963
		c2.91-8.875,3.793-13.213,3.868-19l0.099-7.5l-3.5,0.236c-10.858,0.738-10.015,0.986-14.904-4.371
		c-2.527-2.768-7.205-9.732-10.394-15.477c-7.296-13.145-13.21-21.082-18.733-25.143c-3.529-2.598-5.472-3.248-10.679-3.58
		c-5.627-0.357-7.138-0.023-13.046,2.885c-12.41,6.109-30.477,26.479-48.546,54.73c-33.143,51.822-49.565,90.904-43.293,103.031
		l1.646,3.184l7.725-3.98C204.523,819.691,212.275,815.402,217.5,812.351L217.5,812.351z M639,815.863
		c13.902-8.51,25.125-13.086,35.541-14.492c6.27-0.848,9.061-2.936,27.736-20.746c6.203-5.914,13.629-12.102,16.5-13.748
		c13.246-7.598,22.232-0.535,26.287,20.658c0.789,4.127,1.436,9.451,1.436,11.834c0,8.809,1.074,7.904,7.992-6.725
		c21.047-44.498,31.207-75.176,27.068-81.719c-0.75-1.182-1.758-1.24-5.734-0.326c-8.916,2.049-11.697-0.465-23.906-21.609
		c-11.98-20.75-18.967-27.127-29.721-27.127c-14.865,0-35.65,19.615-59.086,55.756c-16.9,26.066-34.266,58.484-41.105,76.744
		c-4.561,12.174-5.912,24.709-3.123,28.965l1.664,2.539l6.008-3.033C629.864,821.164,635.461,818.027,639,815.863L639,815.863z
		 M131.547,821.218c2.792-8.459-1.501-23.672-13.646-48.355c-20.679-42.031-50.48-85.945-68.306-100.654
		c-9.941-8.203-15.643-10.672-23.487-10.172c-11.079,0.705-17.239,6.711-29.564,28.828c-10.031,18-14.504,21.936-22.5,19.797
		c-5.818-1.555-7.096-0.418-6.896,6.143c0.357,11.758,15.913,52.764,32.048,84.486l3.015,5.928l0.728-8.344
		c1.47-16.855,6.543-30.4,12.551-33.508c7.467-3.859,14.711-0.787,27.768,11.783c5.359,5.16,13.44,12.545,17.958,16.412
		c7.255,6.211,8.833,7.115,13.5,7.73c8.208,1.082,19.509,5.211,28.285,10.33c12.938,7.551,23.877,13.18,25.672,13.211
		C129.722,824.851,130.793,823.505,131.547,821.218L131.547,821.218z M558.288,823.613c4.951-5.992,0.551-24.025-12.262-50.25
		c-17.176-35.158-44.584-77.111-61.824-94.633c-15.953-16.213-29.07-20.824-39.828-14.002c-6.193,3.926-10.383,9.336-19.887,25.668
		c-4.469,7.682-9.107,15.037-10.307,16.346c-3.57,3.895-7.568,5.139-12.381,3.855c-5.146-1.375-7.299,0.035-7.299,4.777
		c0,5.365,4.609,21.473,10.357,36.186c5.869,15.029,22.994,53.055,24.629,54.688c0.686,0.686,1.016-0.59,1.021-3.936
		c0.02-13.502,4.393-28.686,9.941-34.518c3.232-3.398,4.33-3.932,8.08-3.932c6.791,0,12.34,3.439,24.863,15.42
		c20.744,19.844,21.762,20.557,32.359,22.682c9.777,1.959,20.219,6.641,38.748,17.367
		C554.362,825.041,556.547,825.718,558.288,823.613L558.288,823.613z M183.421,723.371c21.792-25.377,56.338-59.656,78.286-77.68
		l7.707-6.328l-3.207-2.5c-29.574-23.053-74.283-69.195-102.736-106.029l-2.529-3.273l-8.952,11.4
		c-23.268,29.633-63.366,70.857-90.268,92.807l-9.31,7.596l3.78,3c28.235,22.408,78.215,73.715,98.529,101.141l6.063,8.188
		l7.029-9.164C171.679,737.486,178.703,728.867,183.421,723.371L183.421,723.371z M596.948,740.738
		c21.313-27.746,63.006-70.621,91.939-94.549l8.152-6.74l-12.02-10.004c-24.582-20.459-71.494-69.283-89.529-93.178
		c-3.281-4.348-6.375-7.904-6.875-7.904s-2.93,2.744-5.4,6.098c-16.273,22.107-68.643,76.684-92.004,95.885
		c-8.619,7.082-10.531,9.109-9.5,10.068c0.709,0.662,6.238,5.406,12.289,10.543c25.49,21.646,66.611,64.359,85.336,88.641
		c4.766,6.178,8.928,11.24,9.25,11.25C588.909,750.855,592.67,746.306,596.948,740.738z M351,663.488
		c2.75-0.742,7.799-2.537,11.22-3.988c9-3.816,15.849-3.604,27.24,0.846c11.887,4.646,18.311,5.375,24.236,2.754
		c5.529-2.445,8.848-6.643,12.768-16.146l2.994-7.264l-3.074-7.971c-6.996-18.145-16.533-21.377-37.631-12.758
		c-10.551,4.311-16.982,4.305-27.711-0.029c-20.483-8.273-29.043-5.811-36.717,10.564c-2.104,4.488-3.824,8.758-3.824,9.488
		c0,3.373,5.76,15.459,9.263,19.439C335.268,664.677,341.283,666.111,351,663.488L351,663.488z M39.5,613.642
		c12.97-6.25,33.361-30.111,52.845-61.84c18.499-30.122,30.772-54.022,36.833-71.721c3.312-9.671,3.853-22.104,1.083-24.882
		c-1.655-1.66-1.972-1.635-6.5,0.535c-2.618,1.254-9.346,4.979-14.951,8.276c-13.202,7.768-22.26,11.521-31.418,13.018
		c-6.599,1.079-8.087,1.768-13.891,6.433c-3.575,2.874-11.749,10.186-18.163,16.249c-6.415,6.063-13.484,11.952-15.71,13.088
		c-5.354,2.73-12.028,2.716-15.525-0.034c-5.512-4.336-9.73-16.886-11.2-33.318l-0.708-7.916l-3.333,6.611
		c-10.392,20.613-25.581,57.453-29.159,70.722c-2.921,10.832-3.376,14.41-2.219,17.455c1.014,2.666,1.115,2.693,7.577,2.002
		l6.549-0.703l4.196,4.412c2.308,2.426,7.036,9.445,10.508,15.596c8.135,14.418,14.139,22.516,19.149,25.83
		C23.285,618.632,29.05,618.677,39.5,613.642z M305.084,614.322c5.64-3.244,10.24-9.188,19.514-25.219
		c4.373-7.557,9.751-15.455,11.951-17.551c3.923-3.734,4.134-3.805,10.726-3.5l6.725,0.311l-0.109-7.5
		c-0.17-11.576-7.118-31.115-24.711-69.483l-9.17-20l-0.743,5.991c-2.587,20.841-4.961,28.619-10.395,34.053
		c-2.901,2.9-4.144,3.438-7.945,3.438c-6.514,0-11.327-2.896-22.697-13.658c-15.984-15.13-26.167-23.342-28.942-23.342
		c-1.357,0-5.939-0.888-10.181-1.973c-7.567-1.936-14.098-5.071-34.107-16.377c-5.5-3.108-10.732-5.65-11.628-5.65
		c-2.618,0-4.199,5.353-3.627,12.281c0.778,9.439,6.228,24.387,15.756,43.219c19.762,39.057,45.953,78.026,63.306,94.194
		c14.547,13.555,25.683,16.857,36.279,10.764L305.084,614.322z M465,614.906c17.084-7.502,40.023-36.033,67.553-84.016
		c15.717-27.392,25.906-51.175,27.461-64.09c0.727-6.029-1.27-12.963-3.713-12.908c-1.406,0.031-12.48,5.839-25.344,13.29
		c-9.102,5.272-20.41,9.422-28.154,10.333c-4.443,0.521-6.268,1.462-12.021,6.188c-3.73,3.065-11.281,9.928-16.781,15.25
		s-12.227,11.079-14.945,12.793c-10.195,6.424-19.135,3.132-23.609-8.694c-2.637-6.964-4.863-18.821-4.91-26.14
		c-0.021-3.313-0.393-5.077-0.947-4.5c-1.217,1.267-13.943,28.814-20.537,44.45c-10.059,23.86-15.666,43.42-14.164,49.409
		c0.678,2.699,0.695,2.703,7.529,2.031l6.848-0.676l3.988,3.988c2.193,2.191,6.605,8.658,9.807,14.367
		c7.463,13.311,10.867,18.467,15.334,23.213C446.319,617.615,454.723,619.419,465,614.906L465,614.906z M731.247,615.167
		c5.504-2.594,13.412-12.363,21.254-26.254c4.125-7.307,9.289-15.082,11.475-17.275l3.975-3.99l6.742,0.664
		c6.66,0.656,6.75,0.633,7.396-1.945c1.086-4.326-0.457-12.303-5.027-26.004c-6.977-20.914-27.889-68.034-29.697-66.916
		c-0.475,0.293-0.863,2.717-0.863,5.386s-0.646,8.229-1.436,12.355c-2.963,15.486-8.768,23.674-16.783,23.674
		c-6.553,0-11.949-3.375-24.545-15.349c-20.838-19.809-21.846-20.521-31.92-22.592c-11.037-2.268-18.033-5.207-32.414-13.617
		c-6.246-3.652-13.117-7.345-15.271-8.207c-3.695-1.479-3.998-1.458-5.365,0.349c-1.1,1.453-1.338,3.97-0.984,10.416
		c0.564,10.277,4.566,21.706,14.707,42c19.637,39.295,44.887,77.061,63.197,94.524C710.745,616.748,720.471,620.244,731.247,615.167
		L731.247,615.167z M393.946,484.862c7.717-20.04,18.977-47.272,26.436-63.933c2.816-6.288,5.119-11.968,5.119-12.621
		s-2.076-5.859-4.615-11.567c-14.654-32.962-30.711-73.667-40.369-102.338l-5.711-16.958l-3.778,11.458
		c-9.148,27.757-28.044,75.839-42.372,107.817l-5.089,11.359l8.339,19.141c14.957,34.33,29.655,72.043,38.535,98.875l4.214,12.734
		l6.275-18.234C384.383,510.567,390.239,494.487,393.946,484.862z M74.606,473.512c6.752-5.149,18.079-12.217,25.6-15.975
		c10.55-5.272,16.348-6.842,24.519-6.638c6.109,0.152,8.877-0.394,17.275-3.41c8.659-3.109,11.208-3.592,19-3.6
		c7.86-0.009,10.266,0.45,19,3.624c8.506,3.09,11.087,3.602,17.275,3.419c12.576-0.371,27.664,6.357,48.725,21.73
		c5.995,4.375,6.006,4.379,13,3.878c21.833-1.565,42.193-19.609,56.555-50.121c7.351-15.618,7.682-17.267,4.962-24.771
		c-6.196-17.101-16.189-33.261-27.389-44.291c-11.626-11.45-24.172-17.496-36.306-17.496c-4.727,0-5.992,0.498-11.423,4.496
		c-8.848,6.514-21.542,14.002-30.021,17.712c-6.373,2.788-8.602,3.246-16.376,3.364c-7.521,0.114-10.746,0.736-19.626,3.783
		c-14.897,5.11-22.095,5.056-37.975-0.288c-9.922-3.339-12.455-3.828-17.5-3.379c-4.461,0.396-7.483-0.005-12.399-1.648
		c-8.257-2.76-22.127-10.398-32.814-18.07c-7.613-5.465-8.752-5.968-13.5-5.958c-19.949,0.046-40.143,15.707-55.433,42.988
		C5.506,390.438-0.5,405.243-0.5,408.133c0,4.8,10.044,26.422,17.295,37.229c5.834,8.696,19.113,21.432,26.317,25.239
		c7.428,3.927,15.169,6.106,21.994,6.195C69.413,476.852,70.9,476.338,74.606,473.512L74.606,473.512z M508.272,469.431
		c12.246-8.41,26.41-15.857,33.537-17.636c2.646-0.66,7.225-0.951,10.176-0.646c4.541,0.469,7.074-0.048,16.494-3.366
		c9.756-3.437,12.23-3.92,20.059-3.92c7.756,0,10.277,0.482,19.195,3.674c8.9,3.186,11.279,3.643,17.869,3.431
		c6.449-0.206,8.801,0.221,15.5,2.813c8.801,3.407,21.305,10.578,31.818,18.251l6.953,5.073l6.564-0.507
		c12.744-0.984,23.893-6.636,34.998-17.74c10.359-10.36,20.197-26.486,26.705-43.774c2.383-6.332,2.4-6.583,0.775-11.597
		c-2.553-7.87-9.693-22.302-15.154-30.624c-13.338-20.33-32.092-33-48.842-33c-5.035,0-6.043,0.461-16.145,7.38
		c-19.133,13.104-33.938,19.317-43.672,18.328c-4.191-0.426-7.234,0.201-17.037,3.511c-11.479,3.876-12.301,4.01-21.5,3.502
		c-7.527-0.415-11.379-1.221-18.066-3.783c-7.107-2.722-9.975-3.28-17.5-3.404c-6.615-0.11-10.461-0.726-14.512-2.325
		c-7.391-2.917-21.787-11.195-30.98-17.815c-6.953-5.006-7.9-5.395-13.145-5.395c-24.092,0-47.943,22.938-62.838,60.434
		l-2.959,7.449l1.896,5.512c6.135,17.828,17.02,35.513,28.719,46.657c11.418,10.877,23.713,16.718,35.543,16.883
		C497.01,476.856,498.456,476.171,508.272,469.431z M131.304,359.783c3.591-6.667-1.342-24.957-13.328-49.421
		c-23.22-47.394-55.739-93.062-75.405-105.895c-17.477-11.403-29.497-5.425-45.071,22.415c-4.125,7.374-9.455,15.39-11.843,17.813
		c-4.042,4.1-4.631,4.37-8.5,3.896c-2.286-0.28-4.832-0.779-5.657-1.109c-5.82-2.328-5.787,7.969,0.082,26.016
		c4.64,14.268,11.843,31.757,22.988,55.82l7.391,15.958l1.28-10.958c3.268-27.96,11.721-37.776,26.39-30.645
		c2.61,1.269,10.381,7.702,17.803,14.738c19.028,18.04,21.733,20.017,28.458,20.808c7.89,0.927,20.172,5.645,29.845,11.462
		c12.043,7.244,21.896,12.3,23.159,11.884C129.504,362.368,130.587,361.115,131.304,359.783L131.304,359.783z M199.778,359.739
		c3.422-1.717,10.281-5.536,15.242-8.485c10.457-6.218,23.066-11.091,31.16-12.042c4.961-0.583,6.483-1.351,12.243-6.174
		c3.617-3.03,11.302-10.076,17.077-15.659c12.244-11.837,18.334-15.79,24.531-15.923c10.363-0.224,16.094,10.75,19.165,36.699
		l0.804,6.792l6.897-14.792c26.048-55.867,34.423-86.977,22.159-82.314c-1.478,0.562-4.085,1.021-5.793,1.021
		c-4.498,0-9.858-6.129-18.264-20.885c-9.208-16.165-14.582-22.765-21.503-26.407c-10.921-5.748-20.93-1.907-37.066,14.226
		c-15.568,15.564-29.32,34.962-48.978,69.087c-21.781,37.812-32.076,67.039-26.571,75.439c0.916,1.397,1.892,2.54,2.17,2.54
		C193.33,362.862,196.356,361.457,199.778,359.739z M559.18,359.112c4.26-10.114-5.744-37.166-28.23-76.339
		c-23.965-41.748-47.463-71.31-63.461-79.836c-16.207-8.639-27.09-2.747-41.422,22.425c-12.574,22.083-15.676,24.956-24.416,22.618
		c-4.121-1.102-4.738-1.042-5.961,0.577c-3.203,4.238,1.666,22.804,13.309,50.764c5.709,13.707,19.646,44.02,20.746,45.119
		c0.25,0.251,0.727-3.372,1.057-8.05c1.035-14.673,4.76-26.476,9.852-31.211c7.643-7.109,15.664-4.553,30.348,9.67
		c16.244,15.735,26.582,24.014,29.988,24.014c7.549,0,24.287,6.414,35.947,13.775c6.82,4.306,17.992,10.195,19.365,10.21
		C557.016,362.856,558.313,361.175,559.18,359.112z M626.784,360.247c2.869-1.438,8.916-4.835,13.438-7.549
		c14.094-8.459,28.074-13.835,35.979-13.835c3.471,0,11.314-6.214,27.951-22.145c11.152-10.679,15.904-13.975,22.053-15.302
		c6.758-1.458,13.377,4.49,16.635,14.947c2.125,6.816,3.662,15.896,3.662,21.625c0,2.617,0.389,4.998,0.865,5.292
		c1.744,1.079,22.926-46.782,29.773-67.277c7.309-21.878,7.063-30.974-0.768-28.245c-5.814,2.027-7.947,1.412-12.805-3.691
		c-2.512-2.637-6.545-8.375-8.963-12.75c-11.377-20.592-18.66-29.042-27.244-31.614c-17.598-5.272-43.678,20.332-76.049,74.66
		c-27.008,45.325-37.99,74.235-32.65,85.953C620.098,363.469,620.362,363.466,626.784,360.247L626.784,360.247z M170.067,277.362
		c18.239-23.764,62.739-69.835,87.105-90.18l12.172-10.164l-10.672-8.803c-5.87-4.841-21.407-19.389-34.527-32.328
		c-24.516-24.179-42.004-43.371-55.278-60.665c-4.163-5.423-7.779-9.771-8.037-9.662c-0.258,0.109-2.745,3.259-5.526,7
		c-19.315,25.971-66.034,74.475-93.01,96.563l-9.705,7.947l6.705,5.492c28.157,23.063,68.212,63.979,91.447,93.412
		c7.849,9.943,10.436,12.607,11.298,11.641C162.656,286.926,166.268,282.312,170.067,277.362z M594.057,282.119
		c16.117-21.988,64.813-72.977,90.443-94.704c6.324-5.362,11.5-10.075,11.5-10.475c0-0.399-4.051-4.103-9-8.23
		c-30.309-25.274-72.5-69.205-93.301-97.148l-5.063-6.801l-3.924,5.301c-20.543,27.739-65.523,74.771-93.055,97.301
		c-6.049,4.95-10.922,9.286-10.828,9.636c0.094,0.35,3.545,3.425,7.67,6.833c29.734,24.57,77.816,74.606,95.5,99.383
		c2.199,3.082,4.25,5.614,4.557,5.626C588.864,288.853,591.338,285.828,594.057,282.119z M360,197.886
		c11.05-4.658,17.987-4.684,29-0.106c13.877,5.769,24.373,5.364,30.559-1.178c2.404-2.542,6.486-10.198,8.537-16.014
		c1.303-3.692,1.209-4.333-1.643-11.183c-3.668-8.813-8.732-14.985-13.613-16.596c-4.195-1.385-12.059-0.788-17.84,1.354
		c-2.201,0.815-6.576,2.431-9.725,3.59c-8.406,3.095-14.183,2.748-25.047-1.504c-20.84-8.157-29.789-4.89-37.312,13.624
		c-2.567,6.318-2.592,6.591-1.051,11.48c2.275,7.216,7.583,15.568,11.634,18.309C338.691,203.175,349.112,202.476,360,197.886z
		 M39.606,151.213c6.291-3.417,18.88-15.044,26.85-24.798c18.859-23.079,50.411-76.501,59.859-101.35
		c4.806-12.641,6.881-23.932,5.342-29.07c-0.73-2.438-1.848-4.132-2.727-4.132c-1.954,0-11.72,4.934-22.931,11.584
		c-10.727,6.363-19.959,9.978-29.52,11.556c-6.519,1.077-7.588,1.633-14.754,7.68C57.477,26.269,49.5,33.536,44,38.833
		C30.318,52.01,22.975,55.228,15.458,51.341C9.214,48.112,4.291,34.982,2.715,17.362L2,9.362l-8.327,17.891
		c-16.54,35.536-25.006,58.667-25.885,70.718c-0.384,5.271-0.195,7.831,0.617,8.333c0.645,0.398,3.31,0.176,5.922-0.494
		c8.456-2.167,12.016,1.188,24.156,22.766c7.25,12.888,14.118,21.109,20.244,24.233C24.5,155.754,32.353,155.153,39.606,151.213
		L39.606,151.213z M303.387,152.92c5.938-3.03,12.952-11.585,21.024-25.647c9.058-15.781,11.131-18.58,15.509-20.937
		c3.042-1.638,3.873-1.697,7.428-0.523c5.951,1.964,7.152,1.086,7.152-5.23c0-7.162-2.966-18.053-9.407-34.55
		c-5.638-14.436-16.347-38.77-21.982-49.949l-3.362-6.669l-0.711,7.474c-2.754,28.968-11.697,40.61-26.024,33.875
		c-3.059-1.438-9.662-6.841-17.542-14.354c-18.78-17.904-21.799-19.987-31.882-21.997c-9.967-1.987-17.097-5.085-34.589-15.03
		c-7.15-4.065-13.875-7.533-14.944-7.706c-4.404-0.713-5.875,9.306-2.996,20.415c8.674,33.474,56.708,111.941,80.797,131.988
		C283.891,154.094,294.987,157.205,303.387,152.92L303.387,152.92z M466.405,151.752c16.045-8.018,38.787-36.168,63.328-78.39
		c25.352-43.614,35.439-72.575,28.104-80.68c-1.479-1.634-1.904-1.563-7.486,1.255c-3.254,1.643-8.801,4.752-12.326,6.91
		c-13.697,8.383-23.25,12.293-34.377,14.071c-7.535,1.203-9.541,2.668-28.859,21.084c-12.557,11.972-20.023,16.862-25.734,16.855
		c-9.641-0.012-16.369-12.703-18.402-34.711l-0.811-8.785l-6.174,12.743c-18.867,38.948-31.205,74.127-28.578,81.484
		c0.816,2.289,1.506,2.726,3.951,2.504c9.703-0.881,10.313-0.767,13.754,2.568c1.846,1.79,5.521,6.955,8.168,11.477
		c13.756,23.516,19.016,30.287,25.826,33.249C452.381,155.819,459.444,155.23,466.405,151.752L466.405,151.752z M733.403,151.545
		c5.465-3.617,11.334-11.291,19.045-24.904c11.076-19.556,14.789-22.953,22.676-20.744c3.563,0.997,4.662,0.973,5.996-0.134
		c3.797-3.151-1.107-23.197-12.084-49.401c-8.391-20.03-20.871-46.411-21.709-45.893c-0.455,0.281-0.826,2.978-0.826,5.994
		c0,13.81-5.645,30.007-11.898,34.149c-7.469,4.945-13.752,2.266-29.518-12.586c-6.479-6.103-14.795-13.563-18.48-16.579
		c-5.957-4.874-7.461-5.604-13.543-6.575c-9.08-1.451-20.158-5.841-30.553-12.108c-4.672-2.816-11.523-6.646-15.227-8.512
		l-6.734-3.391l-1.65,2.52c-2.393,3.651-1.451,15.758,2.023,25.982c6.568,19.335,31.113,63.895,50.279,91.283
		c15.59,22.274,31.162,38.042,41.676,42.196C720.012,155.661,727.94,155.161,733.403,151.545L733.403,151.545z"/>
</g>
</svg>
